<svg width="10" height="10" viewBox="0 0 10 10" fill="none" xmlns="http://www.w3.org/2000/svg">
<path fill-rule="evenodd" clip-rule="evenodd" d="M5.62528 1.43469C5.52809 1.17344 5.27872 1 4.99997 1C4.72153 1 4.47215 1.17344 4.37466 1.43469L3.58153 3.58125L1.43625 4.37469C1.17343 4.47187 1 4.72125 1 5C1 5.27875 1.17344 5.52813 1.43625 5.62531L3.58153 6.41875L4.37466 8.56531C4.47216 8.82656 4.72153 9 4.99997 9C5.27872 9 5.52809 8.82656 5.62528 8.56531L6.41872 6.41875L8.56528 5.62531C8.82684 5.52813 8.99997 5.27875 8.99997 5C8.99997 4.72125 8.82684 4.47187 8.56528 4.37469L6.41872 3.58125L5.62528 1.43469Z" fill="#F0B51E" stroke="white"/>
</svg>
