<svg width="36" height="36" viewBox="0 0 36 36" fill="none" xmlns="http://www.w3.org/2000/svg">
<g opacity="0.12">
<path d="M17.9998 9.66669C13.3998 9.66669 9.6665 13.4 9.6665 18C9.6665 22.6 13.3998 26.3334 17.9998 26.3334C22.5998 26.3334 26.3332 22.6 26.3332 18C26.3332 13.4 22.5998 9.66669 17.9998 9.66669ZM11.3332 18C11.3332 14.3167 14.3165 11.3334 17.9998 11.3334C19.5415 11.3334 20.9582 11.8584 22.0832 12.7417L12.7415 22.0834C11.8582 20.9584 11.3332 19.5417 11.3332 18ZM17.9998 24.6667C16.4582 24.6667 15.0415 24.1417 13.9165 23.2584L23.2582 13.9167C24.1415 15.0417 24.6665 16.4584 24.6665 18C24.6665 21.6834 21.6832 24.6667 17.9998 24.6667Z" fill="currentColor"/>
</g>
</svg>
