<svg width="18" height="18" viewBox="0 0 18 18" fill="currentColor" xmlns="http://www.w3.org/2000/svg">
<path opacity="0.3" d="M16.5 10.5C16.5 5.52943 12.4706 0.5 7.5 0.5L8 9L16.5 10.5Z" fill="black"/>
<path d="M17.8287 10.7565C17.9411 10.1884 18 9.60107 18 9H16C16 9.47006 15.9539 9.92738 15.8667 10.3683L17.8287 10.7565Z" fill="currentColor"/>
<path d="M9 2V0C8.39893 0 7.81163 0.0589225 7.24354 0.171306L7.63168 2.13328C8.07262 2.04605 8.52994 2 9 2Z" fill="currentColor"/>
<path d="M3.99946 1.51591C3.018 2.17298 2.17298 3.018 1.51591 3.99946L3.17785 5.1121C3.68948 4.34788 4.34788 3.68948 5.1121 3.17785L3.99946 1.51591Z" fill="currentColor"/>
<path d="M0 9C0 8.39893 0.0589225 7.81162 0.171307 7.24354L2.13328 7.63168C2.04605 8.07262 2 8.52994 2 9C2 9.47006 2.04605 9.92738 2.13328 10.3683L0.171306 10.7565C0.0589225 10.1884 0 9.60107 0 9Z" fill="currentColor"/>
<path d="M1.51591 14.0005C2.17298 14.982 3.018 15.827 3.99946 16.4841L5.1121 14.8222C4.34788 14.3105 3.68948 13.6521 3.17785 12.8879L1.51591 14.0005Z" fill="currentColor"/>
<path d="M7.24354 17.8287C7.81162 17.9411 8.39893 18 9 18C9.60107 18 10.1884 17.9411 10.7565 17.8287L10.3683 15.8667C9.92738 15.9539 9.47006 16 9 16C8.52994 16 8.07262 15.9539 7.63168 15.8667L7.24354 17.8287Z" fill="currentColor"/>
<path d="M14.0005 16.4841C14.982 15.827 15.827 14.982 16.4841 14.0005L14.8222 12.8879C14.3105 13.6521 13.6521 14.3105 12.8879 14.8222L14.0005 16.4841Z" fill="currentColor"/>
<path d="M16 9H18C18 4.02944 13.9706 0 9 0V2C12.866 2 16 5.13401 16 9Z" fill="currentColor"/>
</svg>
